<svg viewBox="0 0 330 200" xmlns="http://www.w3.org/2000/svg"><g><g><g><g><g><line x1="41.140000343322754" y1="177.95999908447266" x2="36.140000343322754" y2="177.95999908447266" style="visibility: inherit;" fill="rgb(0, 0, 0)" stroke="rgb(204, 204, 204)" stroke-width="1px"></line><line x1="41.140000343322754" y1="160.16399917602538" x2="36.140000343322754" y2="160.16399917602538" style="visibility: inherit;" fill="rgb(0, 0, 0)" stroke="rgb(204, 204, 204)" stroke-width="1px"></line><line x1="41.140000343322754" y1="142.3679992675781" x2="36.140000343322754" y2="142.3679992675781" style="visibility: inherit;" fill="rgb(0, 0, 0)" stroke="rgb(204, 204, 204)" stroke-width="1px"></line><line x1="41.140000343322754" y1="124.57199935913087" x2="36.140000343322754" y2="124.57199935913087" style="visibility: inherit;" fill="rgb(0, 0, 0)" stroke="rgb(204, 204, 204)" stroke-width="1px"></line><line x1="41.140000343322754" y1="106.77599945068359" x2="36.140000343322754" y2="106.77599945068359" style="visibility: inherit;" fill="rgb(0, 0, 0)" stroke="rgb(204, 204, 204)" stroke-width="1px"></line><line x1="41.140000343322754" y1="88.97999954223633" x2="36.140000343322754" y2="88.97999954223633" style="visibility: inherit;" fill="rgb(0, 0, 0)" stroke="rgb(204, 204, 204)" stroke-width="1px"></line><line x1="41.140000343322754" y1="71.18399963378907" x2="36.140000343322754" y2="71.18399963378907" style="visibility: inherit;" fill="rgb(0, 0, 0)" stroke="rgb(204, 204, 204)" stroke-width="1px"></line><line x1="41.140000343322754" y1="53.3879997253418" x2="36.140000343322754" y2="53.3879997253418" style="visibility: inherit;" fill="rgb(0, 0, 0)" stroke="rgb(204, 204, 204)" stroke-width="1px"></line><line x1="41.140000343322754" y1="35.591999816894514" x2="36.140000343322754" y2="35.591999816894514" style="visibility: inherit;" fill="rgb(0, 0, 0)" stroke="rgb(204, 204, 204)" stroke-width="1px"></line><line x1="41.140000343322754" y1="17.79599990844727" x2="36.140000343322754" y2="17.79599990844727" style="visibility: inherit;" fill="rgb(0, 0, 0)" stroke="rgb(204, 204, 204)" stroke-width="1px"></line><line x1="41.140000343322754" y1="0" x2="36.140000343322754" y2="0" style="visibility: inherit;" fill="rgb(0, 0, 0)" stroke="rgb(204, 204, 204)" stroke-width="1px"></line></g><g transform="translate(31.140000343322754, 0)"><text style="text-anchor: end; visibility: hidden; font-family: &quot;Helvetica Neue&quot;, sans-serif; font-size: 12px; font-weight: 200;" x="0" y="177.95999908447266" dx="0em" dy="0.3em" fill="rgb(50, 49, 63)" stroke="none" stroke-width="1px">560</text><text style="text-anchor: end; visibility: inherit; font-family: &quot;Helvetica Neue&quot;, sans-serif; font-size: 12px; font-weight: 200;" x="0" y="160.16399917602538" dx="0em" dy="0.3em" fill="rgb(50, 49, 63)" stroke="none" stroke-width="1px">580</text><text style="text-anchor: end; visibility: hidden; font-family: &quot;Helvetica Neue&quot;, sans-serif; font-size: 12px; font-weight: 200;" x="0" y="142.3679992675781" dx="0em" dy="0.3em" fill="rgb(50, 49, 63)" stroke="none" stroke-width="1px">600</text><text style="text-anchor: end; visibility: inherit; font-family: &quot;Helvetica Neue&quot;, sans-serif; font-size: 12px; font-weight: 200;" x="0" y="124.57199935913087" dx="0em" dy="0.3em" fill="rgb(50, 49, 63)" stroke="none" stroke-width="1px">620</text><text style="text-anchor: end; visibility: hidden; font-family: &quot;Helvetica Neue&quot;, sans-serif; font-size: 12px; font-weight: 200;" x="0" y="106.77599945068359" dx="0em" dy="0.3em" fill="rgb(50, 49, 63)" stroke="none" stroke-width="1px">640</text><text style="text-anchor: end; visibility: inherit; font-family: &quot;Helvetica Neue&quot;, sans-serif; font-size: 12px; font-weight: 200;" x="0" y="88.97999954223633" dx="0em" dy="0.3em" fill="rgb(50, 49, 63)" stroke="none" stroke-width="1px">660</text><text style="text-anchor: end; visibility: hidden; font-family: &quot;Helvetica Neue&quot;, sans-serif; font-size: 12px; font-weight: 200;" x="0" y="71.18399963378907" dx="0em" dy="0.3em" fill="rgb(50, 49, 63)" stroke="none" stroke-width="1px">680</text><text style="text-anchor: end; visibility: inherit; font-family: &quot;Helvetica Neue&quot;, sans-serif; font-size: 12px; font-weight: 200;" x="0" y="53.3879997253418" dx="0em" dy="0.3em" fill="rgb(50, 49, 63)" stroke="none" stroke-width="1px">700</text><text style="text-anchor: end; visibility: hidden; font-family: &quot;Helvetica Neue&quot;, sans-serif; font-size: 12px; font-weight: 200;" x="0" y="35.591999816894514" dx="0em" dy="0.3em" fill="rgb(50, 49, 63)" stroke="none" stroke-width="1px">720</text><text style="text-anchor: end; visibility: inherit; font-family: &quot;Helvetica Neue&quot;, sans-serif; font-size: 12px; font-weight: 200;" x="0" y="17.79599990844727" dx="0em" dy="0.3em" fill="rgb(50, 49, 63)" stroke="none" stroke-width="1px">740</text><text style="text-anchor: end; visibility: hidden; font-family: &quot;Helvetica Neue&quot;, sans-serif; font-size: 12px; font-weight: 200;" x="0" y="0" dx="0em" dy="0.3em" fill="rgb(50, 49, 63)" stroke="none" stroke-width="1px">760</text></g><line x1="41.140000343322754" y1="0" x2="41.140000343322754" y2="177.95999908447266" fill="rgb(0, 0, 0)" stroke="rgb(204, 204, 204)" stroke-width="1px"></line></g></g><g transform="translate(41, 0)" clip-path="url(#clip_0)"><clipPath id="clip_0"><rect width="288" height="177"></rect></clipPath><g><g><g><line x1="0" y1="0" x2="0" y2="177.95999908447266" fill="rgb(0, 0, 0)" stroke="rgb(60, 60, 60)" stroke-width="1px" opacity="0.25"></line><line x1="24.071666638056435" y1="0" x2="24.071666638056435" y2="177.95999908447266" fill="rgb(0, 0, 0)" stroke="rgb(60, 60, 60)" stroke-width="1px" opacity="0.25"></line><line x1="48.14333327611287" y1="0" x2="48.14333327611287" y2="177.95999908447266" fill="rgb(0, 0, 0)" stroke="rgb(60, 60, 60)" stroke-width="1px" opacity="0.25"></line><line x1="72.21499991416931" y1="0" x2="72.21499991416931" y2="177.95999908447266" fill="rgb(0, 0, 0)" stroke="rgb(60, 60, 60)" stroke-width="1px" opacity="0.25"></line><line x1="96.28666655222574" y1="0" x2="96.28666655222574" y2="177.95999908447266" fill="rgb(0, 0, 0)" stroke="rgb(60, 60, 60)" stroke-width="1px" opacity="0.25"></line><line x1="120.3583331902822" y1="0" x2="120.3583331902822" y2="177.95999908447266" fill="rgb(0, 0, 0)" stroke="rgb(60, 60, 60)" stroke-width="1px" opacity="0.25"></line><line x1="144.42999982833862" y1="0" x2="144.42999982833862" y2="177.95999908447266" fill="rgb(0, 0, 0)" stroke="rgb(60, 60, 60)" stroke-width="1px" opacity="0.25"></line><line x1="168.50166646639508" y1="0" x2="168.50166646639508" y2="177.95999908447266" fill="rgb(0, 0, 0)" stroke="rgb(60, 60, 60)" stroke-width="1px" opacity="0.25"></line><line x1="192.57333310445148" y1="0" x2="192.57333310445148" y2="177.95999908447266" fill="rgb(0, 0, 0)" stroke="rgb(60, 60, 60)" stroke-width="1px" opacity="0.25"></line><line x1="216.64499974250793" y1="0" x2="216.64499974250793" y2="177.95999908447266" fill="rgb(0, 0, 0)" stroke="rgb(60, 60, 60)" stroke-width="1px" opacity="0.25"></line><line x1="240.7166663805644" y1="0" x2="240.7166663805644" y2="177.95999908447266" fill="rgb(0, 0, 0)" stroke="rgb(60, 60, 60)" stroke-width="1px" opacity="0.25"></line><line x1="264.7883330186208" y1="0" x2="264.7883330186208" y2="177.95999908447266" fill="rgb(0, 0, 0)" stroke="rgb(60, 60, 60)" stroke-width="1px" opacity="0.25"></line><line x1="288.85999965667725" y1="0" x2="288.85999965667725" y2="177.95999908447266" fill="rgb(0, 0, 0)" stroke="rgb(60, 60, 60)" stroke-width="1px" opacity="0.25"></line></g><g><line x1="0" y1="177.95999908447266" x2="288.85999965667725" y2="177.95999908447266" fill="rgb(0, 0, 0)" stroke="rgb(60, 60, 60)" stroke-width="1px" opacity="0.25"></line><line x1="0" y1="160.16399917602538" x2="288.85999965667725" y2="160.16399917602538" fill="rgb(0, 0, 0)" stroke="rgb(60, 60, 60)" stroke-width="1px" opacity="0.25"></line><line x1="0" y1="142.3679992675781" x2="288.85999965667725" y2="142.3679992675781" fill="rgb(0, 0, 0)" stroke="rgb(60, 60, 60)" stroke-width="1px" opacity="0.25"></line><line x1="0" y1="124.57199935913087" x2="288.85999965667725" y2="124.57199935913087" fill="rgb(0, 0, 0)" stroke="rgb(60, 60, 60)" stroke-width="1px" opacity="0.25"></line><line x1="0" y1="106.77599945068359" x2="288.85999965667725" y2="106.77599945068359" fill="rgb(0, 0, 0)" stroke="rgb(60, 60, 60)" stroke-width="1px" opacity="0.25"></line><line x1="0" y1="88.97999954223633" x2="288.85999965667725" y2="88.97999954223633" fill="rgb(0, 0, 0)" stroke="rgb(60, 60, 60)" stroke-width="1px" opacity="0.25"></line><line x1="0" y1="71.18399963378907" x2="288.85999965667725" y2="71.18399963378907" fill="rgb(0, 0, 0)" stroke="rgb(60, 60, 60)" stroke-width="1px" opacity="0.25"></line><line x1="0" y1="53.3879997253418" x2="288.85999965667725" y2="53.3879997253418" fill="rgb(0, 0, 0)" stroke="rgb(60, 60, 60)" stroke-width="1px" opacity="0.25"></line><line x1="0" y1="35.591999816894514" x2="288.85999965667725" y2="35.591999816894514" fill="rgb(0, 0, 0)" stroke="rgb(60, 60, 60)" stroke-width="1px" opacity="0.25"></line><line x1="0" y1="17.79599990844727" x2="288.85999965667725" y2="17.79599990844727" fill="rgb(0, 0, 0)" stroke="rgb(60, 60, 60)" stroke-width="1px" opacity="0.25"></line><line x1="0" y1="0" x2="288.85999965667725" y2="0" fill="rgb(0, 0, 0)" stroke="rgb(60, 60, 60)" stroke-width="1px" opacity="0.25"></line></g></g></g><g><g><line x1="0" y1="676.2479965209961" x2="288.85999965667725" y2="676.2479965209961" fill="rgb(0, 0, 0)" stroke="rgb(153, 153, 153)" stroke-width="1.5px"></line></g></g><g><g><line x1="24.071666638056435" y1="0" x2="24.071666638056435" y2="177.95999908447266" fill="rgb(0, 0, 0)" stroke="rgb(153, 153, 153)" stroke-width="1.5px"></line></g></g><g><g><g><g><g><path style="fill: none;" stroke="rgb(51, 187, 238)" stroke-width="2px" d="M25.27524996995926,31.758538972358224L26.47883330186208,30.99580186232953L27.682416633764905,31.0471287936102L28.885999965667725,31.53212401120328L30.08958329757055,31.887408657019733L31.29316662947337,32.32234220030881L32.49674996137619,33.16356019511019L33.700333293279016,32.840229451769545L34.903916625181836,32.953216486267394L36.107499957084656,33.50160551973036L37.31108328898748,33.634966182099134L38.514666620890296,34.71180690014381L39.71824995279312,34.774759565248644L40.92183328469594,34.366686071851376L42.12541661659877,34.796317746465064L43.32899994850158,35.11678817523895L44.53258328040441,35.29249980552984L45.73616661230723,35.392671819579675L46.93974994421006,36.658329804475756L48.14333327611287,36.156333279285235L49.3469166080157,37.08544859065722L50.55049993991852,37.98086373505561L51.754083271821344,39.02398750865382L52.95766660372416,39.439114541149365L54.161249935626984,40.64600891426031L55.36483326752981,41.87317663903386L56.568416599432624,42.670541128190564L57.77199993133545,43.99928797637065L58.97558326323827,45.490605883577445L60.1791665951411,46.39947319333268L61.38274992704391,47.657176632241544L62.58633325894674,48.604682738918285L63.78991659084956,50.3390503301184L64.99349992275238,50.61760577485806L66.1970832546552,52.616019581114784L67.40066658655803,53.65570327174582L68.60424991846084,55.933941908722986L69.80783325036367,56.078496265276044L71.01141658226649,58.0051554018183L72.21499991416931,58.85932272784876L73.41858324607213,60.28654012560027L74.62216657797497,61.47283082076872L75.82574990987779,63.24506609173011L77.02933324178059,63.664410162454516L78.23291657368341,66.0162356909358L79.43649990558625,65.56161853688137L80.64008323748907,66.9389319372114L81.84366656939189,68.7892851283817L83.0472499012947,70.10437262306078L84.25083323319754,71.01114548546293L85.45441656510036,72.4678190126622L86.65799989700317,73.20915690407347L87.86158322890599,74.76592722597361L89.06516656080882,75.22791315689153L90.26874989271164,76.85492435693617L91.47233322461446,77.89662782955497L92.6759165565173,78.34499333200374L93.87949988842011,80.68616478589871L95.08308322032292,81.99521850345407L96.28666655222574,81.9338852549451L97.49024988412857,82.72912216191077L98.6938332160314,84.21006992592599L99.89741654793421,86.27618981851144L101.10099987983703,85.55117641260782L102.30458321173987,87.760499283196L103.50816654364269,87.0135498277346L104.7117498755455,89.36970562342928L105.91533320744831,89.84376509200816L107.11891653935115,91.83448350363527L108.32249987125397,92.44570018349467L109.52608320315679,92.70476786774557L110.72966653505962,94.51615755180813L111.93324986696244,94.36409258932235L113.13683319886525,97.41276575876344L114.34041653076807,97.70523988317751L115.5439998626709,97.79267847448988L116.74758319457372,99.3015156891677L117.95116652647654,99.35396992177594L119.15474985837936,100.57598442787244L120.3583331902822,101.67977658177222L121.56191652218502,103.00440543515771L122.76549985408782,103.40652808612312L123.96908318599064,104.48498703372356L125.17266651789348,105.6078534056954L126.3762498497963,105.88609449556155L127.57983318169912,106.6866957917291L128.78341651360194,107.8723360286919L129.98699984550476,108.1969091670002L131.19058317740758,109.5146996897154L132.3941665093104,109.07075478606328L133.59774984121324,110.14829865727071L134.80133317311606,110.70784355466132L136.00491650501885,112.76734074789962L137.20849983692167,112.22526385814466L138.41208316882452,114.35752539719574L139.61566650072734,113.3713029426334L140.81924983263016,114.0006983112701L142.02283316453298,114.92431559311984L143.2264164964358,116.14683524590075L144.42999982833862,116.33030465758642L145.63358316024144,116.75285903736531L146.83716649214426,118.86469637735217L148.04074982404708,119.65216269494464L149.24433315594993,119.58620052537958L150.44791648785275,121.27408649600348L151.65149981975557,120.46498734556289L152.8550831516584,122.10525048596412L154.05866648356118,121.95841088090623L155.262249815464,122.97165184853361L156.46583314736682,123.17705751516532L157.66941647926964,123.41487135400797L158.8729998111725,124.59479794787589L160.0765831430753,125.34733079849853L161.28016647497813,125.71951580224905L162.48374980688095,125.97536880628506L163.68733313878377,127.89164478420831L164.8909164706866,128.7930658019274L166.0944998025894,129.07086694418555L167.29808313449226,127.75612622114612L168.50166646639508,129.87883510730475L169.7052497982979,129.96159261797803L170.90883313020072,130.34757240585478L172.1124164621035,130.0733037675114L173.31599979400633,131.87838091421617L174.51958312590915,131.66819762393123L175.72316645781197,132.38398703507747L176.92674978971482,134.8242218481785L178.13033312161764,132.81560108886592L179.33391645352046,134.13026140840083L180.53749978542328,134.4319268604404L181.7410831173261,134.50943474547788L182.94466644922892,134.7832338454481L184.14824978113174,136.12849687357345L185.3518331130346,134.80739039475702L186.5554164449374,134.59396544979967L187.75899977684023,137.36547235755674L188.96258310874305,138.64508472683914L190.16616644064584,137.19526027505145L191.36974977254866,136.4965261060279L192.57333310445148,137.36788662336488L193.7769164363543,137.36983539250141L194.98049976825715,138.4938123337538L196.18408310015997,138.84829628335407L197.3876664320628,138.1652126586993L198.5912497639656,138.97922850300068L199.79483309586843,138.72531975656452L200.99841642777125,139.85273543473616L202.20199975967407,138.5914368047331L203.40558309157691,138.75784684561467L204.60916642347973,139.35877018201882L205.81274975538255,140.04543935796488L207.01633308728537,137.30549382408387L208.21991641918817,137.38349369704494L209.423499751091,95.10433696845313L210.6270830829938,72.27474976882762L211.83066641489663,62.85629240750589L213.03424974679947,62.52672595161725L214.2378330787023,67.22427636539985L215.44141641060511,73.22633981506499L216.64499974250793,80.95424259996227L217.84858307441075,88.11635657236192L219.05216640631357,96.02861122626655L220.2557497382164,103.13252197035304L221.45933307011924,107.69291665745916L222.66291640202206,113.28476843550072L223.86649973392488,117.88212371468478L225.0700830658277,124.41701663815752L226.2736663977305,124.46762654301162L227.47724972963331,127.19409081678043L228.68083306153613,131.57763961592963L229.88441639343895,133.15982085393534L231.0879997253418,134.0025751783416L232.29158305724462,134.86653737075142L233.49516638914744,136.02982417018424L234.69874972105026,136.7879924360576L235.90233305295308,137.06393410939296L237.1059163848559,138.65763245077358L238.30949971675872,138.13877334795626L239.51308304866157,139.82568451661092L240.7166663805644,139.23766843306706L241.9202497124672,140.37692477135838L243.12383304437003,139.21894450665863L244.32741637627282,139.73618298711125L245.53099970817564,140.3527424019325L246.73458304007846,140.708470795039L247.93816637198128,139.41326671073455L249.14174970388413,139.81595475212907L250.34533303578695,141.13677592590585L251.54891636768977,140.51466911596515L252.7524996995926,138.8615354858038L253.9560830314954,132.8669199330533L255.15966636339823,131.09702121700462L256.363249695301,129.4081162239993L257.56683302720387,26.636607076893142L258.7704163591067,41.41697097563542L259.9739996910095,44.62296789869782L261.17758302291236,71.15060038396595L262.38116635481515,88.7778725030448L263.584749686718,102.49458239407863L264.7883330186208,112.7569193387514" fill="none"></path></g></g></g></g><g opacity="0.2"><g><g><g><path style="fill: none;" stroke="rgb(51, 187, 238)" stroke-width="2px" d="M25.27524996995926,31.758538972358224L26.47883330186208,30.538159596312312L27.682416633764905,31.09640264763962L28.885999965667725,32.1024783870927L30.08958329757055,32.35126829059794L31.29316662947337,32.92401186675298L32.49674996137619,34.36651538716396L33.700333293279016,32.3688101240038L34.903916625181836,33.11985041555019L36.107499957084656,34.315899322971234L37.31108328898748,33.83379760426004L38.514666620890296,36.32120785757667L39.71824995279312,34.86898301153212L40.92183328469594,33.75537529021034L42.12541661659877,35.440260242479866L43.32899994850158,35.59726779782446L44.53258328040441,35.555992895693066L45.73616661230723,35.54290440699086L46.93974994421006,38.556623971564704L48.14333327611287,35.40338437597035L49.3469166080157,38.47907060282304L50.55049993991852,39.32395698763662L51.754083271821344,40.58865257439203L52.95766660372416,40.061800172317305L54.161249935626984,42.45634189583828L55.36483326752981,43.713922992884164L56.568416599432624,43.86658582168863L57.77199993133545,45.992406208701425L58.97558326323827,47.727581370673136L60.1791665951411,47.762773655648346L61.38274992704391,49.54373137353687L62.58633325894674,50.02594171041157L63.78991659084956,52.940601509870035L64.99349992275238,51.03543892201502L66.1970832546552,55.613640204614484L67.40066658655803,55.215228780882896L68.60424991846084,59.35129982894054L69.80783325036367,56.29532779876375L71.01141658226649,60.89514409590048L72.21499991416931,60.140573714040215L73.41858324607213,62.42736621936551L74.62216657797497,63.2522668620944L75.82574990987779,65.90341899689288L77.02933324178059,64.29342626835918L78.23291657368341,69.5439739830466L79.43649990558625,64.87969280587045L80.64008323748907,69.0049020375777L81.84366656939189,71.56481491503305L83.0472499012947,72.0770038650348L84.25083323319754,72.37130477904807L85.45441656510036,74.65282930344343L86.65799989700317,74.32116374118486L87.86158322890599,77.10108270881697L89.06516656080882,75.92089205326745L90.26874989271164,79.29544115700061L91.47233322461446,79.45918303848244L92.6759165565173,79.01754158567637L93.87949988842011,84.1979219667404L95.08308322032292,83.95879907978698L96.28666655222574,81.8418853821815L97.49024988412857,83.92197752235923L98.6938332160314,86.43149157194887L99.89741654793421,89.37536965738981L101.10099987983703,84.46365630375222L102.30458321173987,91.0744835890783L103.50816654364269,85.89312564454275L104.7117498755455,92.90393931697123L105.91533320744831,90.55485429487656L107.11891653935115,94.82056112107588L108.32249987125397,93.36252520328387L109.52608320315679,93.0933693941217L110.72966653505962,97.23324207790196L111.93324986696244,94.13599514559377L113.13683319886525,101.98577551292489L114.34041653076807,98.14395106979879L115.5439998626709,97.92383636145853L116.74758319457372,101.56477151118452L117.95116652647654,99.43265127068851L119.15474985837936,102.40900618701708L120.3583331902822,103.33546481262195L121.56191652218502,104.99134871523594L122.76549985408782,104.0097120625712L123.96908318599064,106.10267545512411L125.17266651789348,107.29215296365321L126.3762498497963,106.30345613036073L127.57983318169912,107.88759773598052L128.78341651360194,109.65079638413619L129.98699984550476,108.6837688744627L131.19058317740758,111.49138547378824L132.3941665093104,108.40483743058518L133.59774984121324,111.76461446408183L134.80133317311606,111.5471609007474L136.00491650501885,115.85658653775695L137.20849983692167,111.41214852351229L138.41208316882452,117.55591770577244L139.61566650072734,111.89196926078992L140.81924983263016,114.9447913642251L142.02283316453298,116.30974151589442L143.2264164964358,117.98061472507194L144.42999982833862,116.60550877511501L145.63358316024144,117.38669060703367L146.83716649214426,122.03245238733246L148.04074982404708,120.83336217133328L149.24433315594993,119.48725727103185L150.44791648785275,123.80591545193923L151.65149981975557,119.25133861990179L152.8550831516584,124.5656451965659L154.05866648356118,121.73815147331916L155.262249815464,124.49151329997461L156.46583314736682,123.48516601511277L157.66941647926964,123.77159211227205L158.8729998111725,126.36468783867778L160.0765831430753,126.47613007443258L161.28016647497813,126.27779330787482L162.48374980688095,126.3591483123391L163.68733313878377,130.76605875109323L164.8909164706866,130.14519732850604L166.0944998025894,129.48756865757284L167.29808313449226,125.78401513658697L168.50166646639508,133.0628984365426L169.7052497982979,130.08572888398777L170.90883313020072,130.92654208766996L172.1124164621035,129.6619008099963L173.31599979400633,134.58599663427333L174.51958312590915,131.35292268850375L175.72316645781197,133.45767115179683L176.92674978971482,138.48457406783012L178.13033312161764,129.8026699498971L179.33391645352046,136.10225188770332L180.53749978542328,134.88442503849976L181.7410831173261,134.62569657303393L182.94466644922892,135.19393249540357L184.14824978113174,138.14639141576131L185.3518331130346,132.82573067653226L186.5554164449374,134.27382803236367L187.75899977684023,141.52273271919228L188.96258310874305,140.56450328076258L190.16616644064584,135.0205235973699L191.36974977254866,135.44842485249276L192.57333310445148,138.67492739937035L193.7769164363543,137.37275854620617L194.98049976825715,140.17977774563246L196.18408310015997,139.38002220775468L197.3876664320628,137.140587221717L198.5912497639656,140.2002522694529L199.79483309586843,138.34445663691034L200.99841642777125,141.54385895199374L202.20199975967407,136.69948885972843L203.40558309157691,139.00746190693695L204.60916642347973,140.26015518662518L205.81274975538255,141.075443121884L207.01633308728537,133.1955755232624L208.21991641918817,137.50049350648652L209.423499751091,31.68560187556548L210.6270830829938,38.03036896938926L211.83066641489663,48.72860636552329L213.03424974679947,62.03237626778427L214.2378330787023,74.2706019860739L215.44141641060511,82.22943498956272L216.64499974250793,92.54609677730826L217.84858307441075,98.8595275309612L219.05216640631357,107.89699320712359L220.2557497382164,113.78838808648288L221.45933307011924,114.5335086881183L222.66291640202206,121.67254610256292L223.86649973392488,124.7781566334609L225.0700830658277,134.21935602336657L226.2736663977305,124.5435414002929L227.47724972963331,131.28378722743363L228.68083306153613,138.15296281465328L229.88441639343895,135.5330927109439L231.0879997253418,135.26670666495104L232.29158305724462,136.1624806593661L233.49516638914744,137.77475436933338L234.69874972105026,137.92524483486778L235.90233305295308,137.47784661939602L237.1059163848559,141.04817996284459L238.30949971675872,137.36048469373026L239.51308304866157,142.3560512695927L240.7166663805644,138.35564430775122L241.9202497124672,142.0858092787955L243.12383304437003,137.48197410960915L244.32741637627282,140.51204070779028L245.53099970817564,141.27758152416442L246.73458304007846,141.2420633846987L247.93816637198128,137.47046058427776L249.14174970388413,140.4199868142209L250.34533303578695,143.11800768657122L251.54891636768977,139.58150890105404L252.7524996995926,136.38183504056184L253.9560830314954,123.87499660392757L255.15966636339823,128.44217314293144L256.363249695301,126.8747587344912L257.56683302720387,-127.52065664376596L258.7704163591067,63.5875168237486L259.9739996910095,49.431963283291566L261.17758302291236,110.94204911186826L262.38116635481515,115.21878068166319L263.584749686718,123.06964723062934L264.7883330186208,128.15042475576047" fill="none"></path></g></g></g></g></g></g><g transform="translate(41, 177)" clip-path="url(#clip_1)"><clipPath id="clip_1"><rect width="288" height="22"></rect></clipPath><g><g><line x1="0" y1="0" x2="0" y2="5" style="visibility: inherit;" fill="rgb(0, 0, 0)" stroke="rgb(204, 204, 204)" stroke-width="1px"></line><line x1="24.071666638056435" y1="0" x2="24.071666638056435" y2="5" style="visibility: inherit;" fill="rgb(0, 0, 0)" stroke="rgb(204, 204, 204)" stroke-width="1px"></line><line x1="48.14333327611287" y1="0" x2="48.14333327611287" y2="5" style="visibility: inherit;" fill="rgb(0, 0, 0)" stroke="rgb(204, 204, 204)" stroke-width="1px"></line><line x1="72.21499991416931" y1="0" x2="72.21499991416931" y2="5" style="visibility: inherit;" fill="rgb(0, 0, 0)" stroke="rgb(204, 204, 204)" stroke-width="1px"></line><line x1="96.28666655222574" y1="0" x2="96.28666655222574" y2="5" style="visibility: inherit;" fill="rgb(0, 0, 0)" stroke="rgb(204, 204, 204)" stroke-width="1px"></line><line x1="120.3583331902822" y1="0" x2="120.3583331902822" y2="5" style="visibility: inherit;" fill="rgb(0, 0, 0)" stroke="rgb(204, 204, 204)" stroke-width="1px"></line><line x1="144.42999982833862" y1="0" x2="144.42999982833862" y2="5" style="visibility: inherit;" fill="rgb(0, 0, 0)" stroke="rgb(204, 204, 204)" stroke-width="1px"></line><line x1="168.50166646639508" y1="0" x2="168.50166646639508" y2="5" style="visibility: inherit;" fill="rgb(0, 0, 0)" stroke="rgb(204, 204, 204)" stroke-width="1px"></line><line x1="192.57333310445148" y1="0" x2="192.57333310445148" y2="5" style="visibility: inherit;" fill="rgb(0, 0, 0)" stroke="rgb(204, 204, 204)" stroke-width="1px"></line><line x1="216.64499974250793" y1="0" x2="216.64499974250793" y2="5" style="visibility: inherit;" fill="rgb(0, 0, 0)" stroke="rgb(204, 204, 204)" stroke-width="1px"></line><line x1="240.7166663805644" y1="0" x2="240.7166663805644" y2="5" style="visibility: inherit;" fill="rgb(0, 0, 0)" stroke="rgb(204, 204, 204)" stroke-width="1px"></line><line x1="264.7883330186208" y1="0" x2="264.7883330186208" y2="5" style="visibility: inherit;" fill="rgb(0, 0, 0)" stroke="rgb(204, 204, 204)" stroke-width="1px"></line><line x1="288.85999965667725" y1="0" x2="288.85999965667725" y2="5" style="visibility: inherit;" fill="rgb(0, 0, 0)" stroke="rgb(204, 204, 204)" stroke-width="1px"></line></g><g transform="translate(0, 8)"><text style="text-anchor: middle; visibility: hidden; font-family: &quot;Helvetica Neue&quot;, sans-serif; font-size: 12px; font-weight: 200;" x="0" y="0" dx="0em" dy="0.95em" fill="rgb(50, 49, 63)" stroke="none" stroke-width="1px">-20</text><text style="text-anchor: middle; visibility: inherit; font-family: &quot;Helvetica Neue&quot;, sans-serif; font-size: 12px; font-weight: 200;" x="24.071666638056435" y="0" dx="0em" dy="0.95em" fill="rgb(50, 49, 63)" stroke="none" stroke-width="1px">0</text><text style="text-anchor: middle; visibility: hidden; font-family: &quot;Helvetica Neue&quot;, sans-serif; font-size: 12px; font-weight: 200;" x="48.14333327611287" y="0" dx="0em" dy="0.95em" fill="rgb(50, 49, 63)" stroke="none" stroke-width="1px">20</text><text style="text-anchor: middle; visibility: inherit; font-family: &quot;Helvetica Neue&quot;, sans-serif; font-size: 12px; font-weight: 200;" x="72.21499991416931" y="0" dx="0em" dy="0.95em" fill="rgb(50, 49, 63)" stroke="none" stroke-width="1px">40</text><text style="text-anchor: middle; visibility: hidden; font-family: &quot;Helvetica Neue&quot;, sans-serif; font-size: 12px; font-weight: 200;" x="96.28666655222574" y="0" dx="0em" dy="0.95em" fill="rgb(50, 49, 63)" stroke="none" stroke-width="1px">60</text><text style="text-anchor: middle; visibility: inherit; font-family: &quot;Helvetica Neue&quot;, sans-serif; font-size: 12px; font-weight: 200;" x="120.3583331902822" y="0" dx="0em" dy="0.95em" fill="rgb(50, 49, 63)" stroke="none" stroke-width="1px">80</text><text style="text-anchor: middle; visibility: hidden; font-family: &quot;Helvetica Neue&quot;, sans-serif; font-size: 12px; font-weight: 200;" x="144.42999982833862" y="0" dx="0em" dy="0.95em" fill="rgb(50, 49, 63)" stroke="none" stroke-width="1px">100</text><text style="text-anchor: middle; visibility: inherit; font-family: &quot;Helvetica Neue&quot;, sans-serif; font-size: 12px; font-weight: 200;" x="168.50166646639508" y="0" dx="0em" dy="0.95em" fill="rgb(50, 49, 63)" stroke="none" stroke-width="1px">120</text><text style="text-anchor: middle; visibility: hidden; font-family: &quot;Helvetica Neue&quot;, sans-serif; font-size: 12px; font-weight: 200;" x="192.57333310445148" y="0" dx="0em" dy="0.95em" fill="rgb(50, 49, 63)" stroke="none" stroke-width="1px">140</text><text style="text-anchor: middle; visibility: inherit; font-family: &quot;Helvetica Neue&quot;, sans-serif; font-size: 12px; font-weight: 200;" x="216.64499974250793" y="0" dx="0em" dy="0.95em" fill="rgb(50, 49, 63)" stroke="none" stroke-width="1px">160</text><text style="text-anchor: middle; visibility: hidden; font-family: &quot;Helvetica Neue&quot;, sans-serif; font-size: 12px; font-weight: 200;" x="240.7166663805644" y="0" dx="0em" dy="0.95em" fill="rgb(50, 49, 63)" stroke="none" stroke-width="1px">180</text><text style="text-anchor: middle; visibility: inherit; font-family: &quot;Helvetica Neue&quot;, sans-serif; font-size: 12px; font-weight: 200;" x="264.7883330186208" y="0" dx="0em" dy="0.95em" fill="rgb(50, 49, 63)" stroke="none" stroke-width="1px">200</text><text style="text-anchor: middle; visibility: hidden; font-family: &quot;Helvetica Neue&quot;, sans-serif; font-size: 12px; font-weight: 200;" x="288.85999965667725" y="0" dx="0em" dy="0.95em" fill="rgb(50, 49, 63)" stroke="none" stroke-width="1px">220</text></g><line x1="0" y1="0" x2="288.85999965667725" y2="0" fill="rgb(0, 0, 0)" stroke="rgb(204, 204, 204)" stroke-width="1px"></line></g></g></g></g></svg>