<svg viewBox="0 0 330 200" xmlns="http://www.w3.org/2000/svg"><g><g><g><g><g><line x1="41.140000343322754" y1="177.95999908447266" x2="36.140000343322754" y2="177.95999908447266" style="visibility: inherit;" fill="rgb(0, 0, 0)" stroke="rgb(204, 204, 204)" stroke-width="1px"></line><line x1="41.140000343322754" y1="161.7818173495206" x2="36.140000343322754" y2="161.7818173495206" style="visibility: inherit;" fill="rgb(0, 0, 0)" stroke="rgb(204, 204, 204)" stroke-width="1px"></line><line x1="41.140000343322754" y1="145.60363561456853" x2="36.140000343322754" y2="145.60363561456853" style="visibility: inherit;" fill="rgb(0, 0, 0)" stroke="rgb(204, 204, 204)" stroke-width="1px"></line><line x1="41.140000343322754" y1="129.4254538796165" x2="36.140000343322754" y2="129.4254538796165" style="visibility: inherit;" fill="rgb(0, 0, 0)" stroke="rgb(204, 204, 204)" stroke-width="1px"></line><line x1="41.140000343322754" y1="113.24727214466442" x2="36.140000343322754" y2="113.24727214466442" style="visibility: inherit;" fill="rgb(0, 0, 0)" stroke="rgb(204, 204, 204)" stroke-width="1px"></line><line x1="41.140000343322754" y1="97.06909040971236" x2="36.140000343322754" y2="97.06909040971236" style="visibility: inherit;" fill="rgb(0, 0, 0)" stroke="rgb(204, 204, 204)" stroke-width="1px"></line><line x1="41.140000343322754" y1="80.89090867476031" x2="36.140000343322754" y2="80.89090867476031" style="visibility: inherit;" fill="rgb(0, 0, 0)" stroke="rgb(204, 204, 204)" stroke-width="1px"></line><line x1="41.140000343322754" y1="64.71272693980823" x2="36.140000343322754" y2="64.71272693980823" style="visibility: inherit;" fill="rgb(0, 0, 0)" stroke="rgb(204, 204, 204)" stroke-width="1px"></line><line x1="41.140000343322754" y1="48.53454520485619" x2="36.140000343322754" y2="48.53454520485619" style="visibility: inherit;" fill="rgb(0, 0, 0)" stroke="rgb(204, 204, 204)" stroke-width="1px"></line><line x1="41.140000343322754" y1="32.356363469904124" x2="36.140000343322754" y2="32.356363469904124" style="visibility: inherit;" fill="rgb(0, 0, 0)" stroke="rgb(204, 204, 204)" stroke-width="1px"></line><line x1="41.140000343322754" y1="16.178181734952062" x2="36.140000343322754" y2="16.178181734952062" style="visibility: inherit;" fill="rgb(0, 0, 0)" stroke="rgb(204, 204, 204)" stroke-width="1px"></line><line x1="41.140000343322754" y1="0" x2="36.140000343322754" y2="0" style="visibility: inherit;" fill="rgb(0, 0, 0)" stroke="rgb(204, 204, 204)" stroke-width="1px"></line></g><g transform="translate(31.140000343322754, 0)"><text style="text-anchor: end; visibility: hidden; font-family: &quot;Helvetica Neue&quot;, sans-serif; font-size: 12px; font-weight: 200;" x="0" y="177.95999908447266" dx="0em" dy="0.3em" fill="rgb(50, 49, 63)" stroke="none" stroke-width="1px">540</text><text style="text-anchor: end; visibility: inherit; font-family: &quot;Helvetica Neue&quot;, sans-serif; font-size: 12px; font-weight: 200;" x="0" y="161.7818173495206" dx="0em" dy="0.3em" fill="rgb(50, 49, 63)" stroke="none" stroke-width="1px">560</text><text style="text-anchor: end; visibility: hidden; font-family: &quot;Helvetica Neue&quot;, sans-serif; font-size: 12px; font-weight: 200;" x="0" y="145.60363561456853" dx="0em" dy="0.3em" fill="rgb(50, 49, 63)" stroke="none" stroke-width="1px">580</text><text style="text-anchor: end; visibility: inherit; font-family: &quot;Helvetica Neue&quot;, sans-serif; font-size: 12px; font-weight: 200;" x="0" y="129.4254538796165" dx="0em" dy="0.3em" fill="rgb(50, 49, 63)" stroke="none" stroke-width="1px">600</text><text style="text-anchor: end; visibility: hidden; font-family: &quot;Helvetica Neue&quot;, sans-serif; font-size: 12px; font-weight: 200;" x="0" y="113.24727214466442" dx="0em" dy="0.3em" fill="rgb(50, 49, 63)" stroke="none" stroke-width="1px">620</text><text style="text-anchor: end; visibility: inherit; font-family: &quot;Helvetica Neue&quot;, sans-serif; font-size: 12px; font-weight: 200;" x="0" y="97.06909040971236" dx="0em" dy="0.3em" fill="rgb(50, 49, 63)" stroke="none" stroke-width="1px">640</text><text style="text-anchor: end; visibility: hidden; font-family: &quot;Helvetica Neue&quot;, sans-serif; font-size: 12px; font-weight: 200;" x="0" y="80.89090867476031" dx="0em" dy="0.3em" fill="rgb(50, 49, 63)" stroke="none" stroke-width="1px">660</text><text style="text-anchor: end; visibility: inherit; font-family: &quot;Helvetica Neue&quot;, sans-serif; font-size: 12px; font-weight: 200;" x="0" y="64.71272693980823" dx="0em" dy="0.3em" fill="rgb(50, 49, 63)" stroke="none" stroke-width="1px">680</text><text style="text-anchor: end; visibility: hidden; font-family: &quot;Helvetica Neue&quot;, sans-serif; font-size: 12px; font-weight: 200;" x="0" y="48.53454520485619" dx="0em" dy="0.3em" fill="rgb(50, 49, 63)" stroke="none" stroke-width="1px">700</text><text style="text-anchor: end; visibility: inherit; font-family: &quot;Helvetica Neue&quot;, sans-serif; font-size: 12px; font-weight: 200;" x="0" y="32.356363469904124" dx="0em" dy="0.3em" fill="rgb(50, 49, 63)" stroke="none" stroke-width="1px">720</text><text style="text-anchor: end; visibility: hidden; font-family: &quot;Helvetica Neue&quot;, sans-serif; font-size: 12px; font-weight: 200;" x="0" y="16.178181734952062" dx="0em" dy="0.3em" fill="rgb(50, 49, 63)" stroke="none" stroke-width="1px">740</text><text style="text-anchor: end; visibility: hidden; font-family: &quot;Helvetica Neue&quot;, sans-serif; font-size: 12px; font-weight: 200;" x="0" y="0" dx="0em" dy="0.3em" fill="rgb(50, 49, 63)" stroke="none" stroke-width="1px">760</text></g><line x1="41.140000343322754" y1="0" x2="41.140000343322754" y2="177.95999908447266" fill="rgb(0, 0, 0)" stroke="rgb(204, 204, 204)" stroke-width="1px"></line></g></g><g transform="translate(41, 0)" clip-path="url(#clip_0)"><clipPath id="clip_0"><rect width="288" height="177"></rect></clipPath><g><g><g><line x1="0" y1="0" x2="0" y2="177.95999908447266" fill="rgb(0, 0, 0)" stroke="rgb(60, 60, 60)" stroke-width="1px" opacity="0.25"></line><line x1="24.071666638056435" y1="0" x2="24.071666638056435" y2="177.95999908447266" fill="rgb(0, 0, 0)" stroke="rgb(60, 60, 60)" stroke-width="1px" opacity="0.25"></line><line x1="48.14333327611287" y1="0" x2="48.14333327611287" y2="177.95999908447266" fill="rgb(0, 0, 0)" stroke="rgb(60, 60, 60)" stroke-width="1px" opacity="0.25"></line><line x1="72.21499991416931" y1="0" x2="72.21499991416931" y2="177.95999908447266" fill="rgb(0, 0, 0)" stroke="rgb(60, 60, 60)" stroke-width="1px" opacity="0.25"></line><line x1="96.28666655222574" y1="0" x2="96.28666655222574" y2="177.95999908447266" fill="rgb(0, 0, 0)" stroke="rgb(60, 60, 60)" stroke-width="1px" opacity="0.25"></line><line x1="120.3583331902822" y1="0" x2="120.3583331902822" y2="177.95999908447266" fill="rgb(0, 0, 0)" stroke="rgb(60, 60, 60)" stroke-width="1px" opacity="0.25"></line><line x1="144.42999982833862" y1="0" x2="144.42999982833862" y2="177.95999908447266" fill="rgb(0, 0, 0)" stroke="rgb(60, 60, 60)" stroke-width="1px" opacity="0.25"></line><line x1="168.50166646639508" y1="0" x2="168.50166646639508" y2="177.95999908447266" fill="rgb(0, 0, 0)" stroke="rgb(60, 60, 60)" stroke-width="1px" opacity="0.25"></line><line x1="192.57333310445148" y1="0" x2="192.57333310445148" y2="177.95999908447266" fill="rgb(0, 0, 0)" stroke="rgb(60, 60, 60)" stroke-width="1px" opacity="0.25"></line><line x1="216.64499974250793" y1="0" x2="216.64499974250793" y2="177.95999908447266" fill="rgb(0, 0, 0)" stroke="rgb(60, 60, 60)" stroke-width="1px" opacity="0.25"></line><line x1="240.7166663805644" y1="0" x2="240.7166663805644" y2="177.95999908447266" fill="rgb(0, 0, 0)" stroke="rgb(60, 60, 60)" stroke-width="1px" opacity="0.25"></line><line x1="264.7883330186208" y1="0" x2="264.7883330186208" y2="177.95999908447266" fill="rgb(0, 0, 0)" stroke="rgb(60, 60, 60)" stroke-width="1px" opacity="0.25"></line><line x1="288.85999965667725" y1="0" x2="288.85999965667725" y2="177.95999908447266" fill="rgb(0, 0, 0)" stroke="rgb(60, 60, 60)" stroke-width="1px" opacity="0.25"></line></g><g><line x1="0" y1="177.95999908447266" x2="288.85999965667725" y2="177.95999908447266" fill="rgb(0, 0, 0)" stroke="rgb(60, 60, 60)" stroke-width="1px" opacity="0.25"></line><line x1="0" y1="161.7818173495206" x2="288.85999965667725" y2="161.7818173495206" fill="rgb(0, 0, 0)" stroke="rgb(60, 60, 60)" stroke-width="1px" opacity="0.25"></line><line x1="0" y1="145.60363561456853" x2="288.85999965667725" y2="145.60363561456853" fill="rgb(0, 0, 0)" stroke="rgb(60, 60, 60)" stroke-width="1px" opacity="0.25"></line><line x1="0" y1="129.4254538796165" x2="288.85999965667725" y2="129.4254538796165" fill="rgb(0, 0, 0)" stroke="rgb(60, 60, 60)" stroke-width="1px" opacity="0.25"></line><line x1="0" y1="113.24727214466442" x2="288.85999965667725" y2="113.24727214466442" fill="rgb(0, 0, 0)" stroke="rgb(60, 60, 60)" stroke-width="1px" opacity="0.25"></line><line x1="0" y1="97.06909040971236" x2="288.85999965667725" y2="97.06909040971236" fill="rgb(0, 0, 0)" stroke="rgb(60, 60, 60)" stroke-width="1px" opacity="0.25"></line><line x1="0" y1="80.89090867476031" x2="288.85999965667725" y2="80.89090867476031" fill="rgb(0, 0, 0)" stroke="rgb(60, 60, 60)" stroke-width="1px" opacity="0.25"></line><line x1="0" y1="64.71272693980823" x2="288.85999965667725" y2="64.71272693980823" fill="rgb(0, 0, 0)" stroke="rgb(60, 60, 60)" stroke-width="1px" opacity="0.25"></line><line x1="0" y1="48.53454520485619" x2="288.85999965667725" y2="48.53454520485619" fill="rgb(0, 0, 0)" stroke="rgb(60, 60, 60)" stroke-width="1px" opacity="0.25"></line><line x1="0" y1="32.356363469904124" x2="288.85999965667725" y2="32.356363469904124" fill="rgb(0, 0, 0)" stroke="rgb(60, 60, 60)" stroke-width="1px" opacity="0.25"></line><line x1="0" y1="16.178181734952062" x2="288.85999965667725" y2="16.178181734952062" fill="rgb(0, 0, 0)" stroke="rgb(60, 60, 60)" stroke-width="1px" opacity="0.25"></line><line x1="0" y1="0" x2="288.85999965667725" y2="0" fill="rgb(0, 0, 0)" stroke="rgb(60, 60, 60)" stroke-width="1px" opacity="0.25"></line></g></g></g><g><g><line x1="0" y1="614.7709059281783" x2="288.85999965667725" y2="614.7709059281783" fill="rgb(0, 0, 0)" stroke="rgb(153, 153, 153)" stroke-width="1.5px"></line></g></g><g><g><line x1="24.071666638056435" y1="0" x2="24.071666638056435" y2="177.95999908447266" fill="rgb(0, 0, 0)" stroke="rgb(153, 153, 153)" stroke-width="1.5px"></line></g></g><g><g><g><g><g><path style="fill: none;" stroke="rgb(51, 187, 238)" stroke-width="2px" d="M25.27524996995926,28.871152206317674L26.47883330186208,28.17979142413003L27.682416633764905,28.233574670037058L28.885999965667725,28.685041045732106L30.08958329757055,29.01981693627056L31.29316662947337,29.424217498412986L32.49674996137619,30.21395884548599L33.700333293279016,29.937678277554852L34.903916625181836,30.05751899945531L36.107499957084656,30.568344472955317L37.31108328898748,30.704756682113043L38.514666620890296,31.712346752457194L39.71824995279312,31.780118157518984L40.92183328469594,31.440025418218283L42.12541661659877,31.846229395147617L43.32899994850158,32.160530259328226L44.53258328040441,32.34502459240761L45.73616661230723,32.47474093926306L46.93974994421006,33.66094984781978L48.14333327611287,33.26887004384608L49.3469166080157,34.165812914046825L50.55049993991852,35.017817420458925L51.754083271821344,36.0423464418117L52.95766660372416,36.458029760221336L54.161249935626984,37.631169476820446L55.36483326752981,38.81042431286642L56.568416599432624,39.59268555127102L57.77199993133545,40.87349895661788L58.97558326323827,42.330823394430126L60.1791665951411,43.15744545971654L61.38274992704391,44.42334372448653L62.58633325894674,45.289427128381476L63.78991659084956,46.97383912136641L64.99349992275238,47.23681805296974L66.1970832546552,49.18143347373328L67.40066658655803,50.15883187196388L68.60424991846084,52.34108897252257L69.80783325036367,52.520616832010745L71.01141658226649,54.38089749369239L72.21499991416931,55.16913777761424L73.41858324607213,56.57477624366899L74.62216657797497,57.62358589300007L75.82574990987779,59.29801540056722L77.02933324178059,59.77366315092934L78.23291657368341,62.019728145081686L79.43649990558625,61.54953355691218L80.64008323748907,62.85253103599075L81.84366656939189,64.65095603631003L83.0472499012947,65.91659729262079L84.25083323319754,66.7564977286886L85.45441656510036,68.12772440277092L86.65799989700317,68.88319614087146L87.86158322890599,70.37236073468839L89.06516656080882,70.90032974765117L90.26874989271164,72.40472240642174L91.47233322461446,73.4439206563432L92.6759165565173,73.91049623441135L93.87949988842011,76.00746546661352L95.08308322032292,77.26205273216048L96.28666655222574,77.26863780573213L97.49024988412857,77.94698915269115L98.6938332160314,79.4528405491411L99.89741654793421,81.35350562548896L101.10099987983703,80.78158869555425L102.30458321173987,82.80599852186232L103.50816654364269,82.10450152089972L104.7117498755455,84.38973599461046L105.91533320744831,84.86092582231633L107.11891653935115,86.75359788714863L108.32249987125397,87.34476739305347L109.52608320315679,87.67756772508271L110.72966653505962,89.29888194575064L111.93324986696244,89.2084961450201L113.13683319886525,92.00412879232113L114.34041653076807,92.42728457234591L115.5439998626709,92.5100945584639L116.74758319457372,93.95657063527837L117.95116652647654,94.00444839318511L119.15474985837936,95.19222959629874L120.3583331902822,96.27530600447152L121.56191652218502,97.49656238443268L122.76549985408782,97.93968094223753L123.96908318599064,98.95272654928397L125.17266651789348,100.1494420985148L126.3762498497963,100.40197347679049L127.57983318169912,101.15405200414641L128.78341651360194,102.27091122651066L129.98699984550476,102.65551897997052L131.19058317740758,103.93217780280214L132.3941665093104,103.51281320380657L133.59774984121324,104.52165885997726L134.80133317311606,105.13162696033186L136.00491650501885,107.05851007636387L137.20849983692167,106.62217917647673L138.41208316882452,108.70706618466349L139.61566650072734,107.83866053204822L140.81924983263016,108.4551850412319L142.02283316453298,109.34540049868187L143.2264164964358,110.6109644861858L144.42999982833862,110.75809141166732L145.63358316024144,111.24094773182968L146.83716649214426,113.28768868552007L148.04074982404708,114.15069723333384L149.24433315594993,114.08245799802705L150.44791648785275,115.70066677874067L151.65149981975557,115.02519742229362L152.8550831516584,116.54569609858908L154.05866648356118,116.49348576121048L155.262249815464,117.53386535493884L156.46583314736682,117.82412188153754L157.66941647926964,118.07505896471537L158.8729998111725,119.22893706528426L160.0765831430753,120.0330023927354L161.28016647497813,120.51399992994502L162.48374980688095,120.80141352685078L163.68733313878377,122.7987455756415L164.8909164706866,123.67478584439385L166.0944998025894,124.1290774953589L167.29808313449226,122.94067894054209L168.50166646639508,124.94838656212083L169.7052497982979,125.04245953389221L170.90883313020072,125.58667786611468L172.1124164621035,125.2567799315027L173.31599979400633,127.06519638946202L174.51958312590915,127.19517662692806L175.72316645781197,127.6888958530289L176.92674978971482,129.95196534465748L178.13033312161764,128.34626906659946L179.33391645352046,129.69331762754453L180.53749978542328,130.08605266557436L181.7410831173261,130.47968374439765L182.94466644922892,130.74441909431457L184.14824978113174,132.1905237830827L185.3518331130346,131.13580309238398L186.5554164449374,131.11024495573542L187.75899977684023,133.75814844782923L188.96258310874305,135.03116716491573L190.16616644064584,134.0222707205162L191.36974977254866,133.8035345209216L192.57333310445148,134.52567608867795L193.7769164363543,134.88707555384931L194.98049976825715,136.0460099369123L196.18408310015997,136.6783720319179L197.3876664320628,136.31679617749904L198.5912497639656,137.5073445762857L199.79483309586843,137.0955994913793L200.99841642777125,138.23746277153577L202.20199975967407,137.1217508350093L203.40558309157691,137.89007268025648L204.60916642347973,138.3350297967202L205.81274975538255,139.53140031980715L207.01633308728537,139.13823655982935L208.21991641918817,139.92872070268174L209.423499751091,109.77118817481592L210.6270830829938,80.55736801395108L211.83066641489663,66.86726658927002L213.03424974679947,63.76011580229364L214.2378330787023,66.29014099908476L215.44141641060511,70.96505416998822L216.64499974250793,77.51845439255719L217.84858307441075,83.9054822576093L219.05216640631357,91.13278678765447L220.2557497382164,97.76976145496106L221.45933307011924,102.17054090873131L222.66291640202206,107.51040692914458L223.86649973392488,111.98012312135067L225.0700830658277,118.22806488331409L226.2736663977305,118.77073773397473L227.47724972963331,121.61956113131922L228.68083306153613,125.90359936368876L229.88441639343895,127.6525530069105L231.0879997253418,128.93944349329064L232.29158305724462,129.99744104270343L233.49516638914744,131.32316958477668L234.69874972105026,132.28963094564654L235.90233305295308,133.0452716994744L237.1059163848559,134.72001802847782L238.30949971675872,134.39403658911846L239.51308304866157,136.46110231258405L240.7166663805644,135.9484420752836L241.9202497124672,137.214466388231L243.12383304437003,136.5765799356037L244.32741637627282,137.2936760901519L245.53099970817564,137.8600817136434L246.73458304007846,138.58196479191642L247.93816637198128,138.59924506271696L249.14174970388413,139.3242614947807L250.34533303578695,140.05963019924226L251.54891636768977,140.3057929490235L252.7524996995926,140.87281595628755L253.9560830314954,140.68469126460693L255.15966636339823,140.84956296805603L256.363249695301,141.26355765931422L257.56683302720387,123.82826574668474L258.7704163591067,111.24232183340455L259.9739996910095,101.74931443097121L261.17758302291236,103.8966498373008L262.38116635481515,108.88600764053884L263.584749686718,113.78138812413256L264.7883330186208,119.62510022834903" fill="none"></path></g></g></g></g><g opacity="0.2"><g><g><g><path style="fill: none;" stroke="rgb(51, 187, 238)" stroke-width="2px" d="M25.27524996995926,28.871152206317674L26.47883330186208,27.76497495481746L27.682416633764905,28.285206586107705L28.885999965667725,29.215965503549455L30.08958329757055,29.456900338957666L31.29316662947337,29.983649060058156L32.49674996137619,31.343301607662056L33.700333293279016,29.53485855721783L34.903916625181836,30.234260786396703L36.107499957084656,31.32686076745901L37.31108328898748,30.90813774715221L38.514666620890296,33.21824859730603L39.71824995279312,31.88155397971542L40.92183328469594,30.93055258634797L42.12541661659877,32.455057883015L43.32899994850158,32.6317598862785L44.53258328040441,32.621688020208154L45.73616661230723,32.669282524579785L46.93974994421006,35.440082503666844L48.14333327611287,32.68078617553269L49.3469166080157,35.51117802886927L50.55049993991852,36.295796144506056L51.754083271821344,37.579119746302354L52.95766660372416,37.081549813670364L54.161249935626984,39.39087071354416L55.36483326752981,40.57930153795223L56.568416599432624,40.76607540728608L57.77199993133545,42.794717098287805L58.97558326323827,44.51680870874657L60.1791665951411,44.397378100785005L61.38274992704391,46.322190701855675L62.58633325894674,46.58855206190228L63.78991659084956,49.50045690975912L64.99349992275238,47.63128643153786L66.1970832546552,52.09835652130529L67.40066658655803,51.62492944410664L68.60424991846084,55.614474589597776L69.80783325036367,52.789908619576394L71.01141658226649,57.1713184758534L72.21499991416931,56.35149820086292L73.41858324607213,58.68323393993249L74.62216657797497,59.196800365735015L75.82574990987779,61.80965966070917L77.02933324178059,60.487134776266544L78.23291657368341,65.38882563572632L79.43649990558625,60.84424167473124L80.64008323748907,64.80702725448646L81.84366656939189,67.34859353668818L83.0472499012947,67.81505917704409L84.25083323319754,68.01634838277347L85.45441656510036,70.18456441387745L86.65799989700317,70.01640374801673L87.86158322890599,72.60610762540759L89.06516656080882,71.6922832670939L90.26874989271164,74.66131139457522L91.47233322461446,75.00271803122438L92.6759165565173,74.61035960151348L93.87949988842011,79.15291931491599L95.08308322032292,79.14393363048067L96.28666655222574,77.27851541608952L97.49024988412857,78.96451617312957L98.6938332160314,81.7116176438158L99.89741654793421,84.20450324001088L101.10099987983703,79.92371330065228L102.30458321173987,85.84261326132426L103.50816654364269,81.05225601945581L104.7117498755455,87.81758770517665L105.91533320744831,85.5677105638749L107.11891653935115,89.59260598439722L108.32249987125397,88.2315216519108L109.52608320315679,88.17676822312642L110.72966653505962,91.7308532767527L111.93324986696244,89.0729174439245L113.13683319886525,96.19757776327262L114.34041653076807,93.06201824238313L115.5439998626709,92.63430953764102L116.74758319457372,96.12628475050019L117.95116652647654,94.07626503004523L119.15474985837936,96.97390140096911L120.3583331902822,97.89992061673071L121.56191652218502,99.32844695437446L122.76549985408782,98.60435877894474L123.96908318599064,100.47229495985349L125.17266651789348,101.94451542236122L126.3762498497963,100.78077054420402L127.57983318169912,102.28216979518025L128.78341651360194,103.94620006005704L129.98699984550476,103.23243061016018L131.19058317740758,105.8471660370494L132.3941665093104,102.88376630531327L133.59774984121324,106.03492734423331L134.80133317311606,106.0465791108637L136.00491650501885,109.94883475041186L137.20849983692167,105.96768282664601L138.41208316882452,111.83439669694371L139.61566650072734,106.5360520531254L140.81924983263016,109.37997180500746L142.02283316453298,110.68072368485684L143.2264164964358,112.50931046744174L144.42999982833862,110.97878179988952L145.63358316024144,111.96523221207316L146.83716649214426,116.35780011605556L148.04074982404708,115.44521005505442L149.24433315594993,113.98009914506693L150.44791648785275,118.12797994981096L151.65149981975557,114.01199338762302L152.8550831516584,118.8264441130323L154.05866648356118,116.41517025514253L155.262249815464,119.09443474553144L156.46583314736682,118.25950667143546L157.66941647926964,118.451464589482L158.8729998111725,120.9597542161376L160.0765831430753,121.23910038391213L161.28016647497813,121.23549623575951L162.48374980688095,121.2325339222094L163.68733313878377,125.79474364882759L164.8909164706866,124.98884624752259L166.0944998025894,124.8105149718065L167.29808313449226,121.15808110831686L168.50166646639508,127.95994799448897L169.7052497982979,125.18356899154924L170.90883313020072,126.40300536444835L172.1124164621035,124.76193302958484L173.31599979400633,129.77782107640098L174.51958312590915,127.39014698312702L175.72316645781197,128.42947469218L176.92674978971482,133.3465695821003L178.13033312161764,125.93772464951246L179.33391645352046,131.71389046896206L180.53749978542328,130.67515522261914L181.7410831173261,131.0701303626326L182.94466644922892,131.14152211919003L184.14824978113174,134.35968081623486L185.3518331130346,129.55372205633586L186.5554164449374,131.07190775076265L187.75899977684023,137.73000368596985L188.96258310874305,136.94069524054544L190.16616644064584,132.5089260539167L191.36974977254866,133.47543022152968L192.57333310445148,135.60888844031248L193.7769164363543,135.42917475160635L194.98049976825715,137.7844115115067L196.18408310015997,137.62691517442633L197.3876664320628,135.77443239587063L198.5912497639656,139.2931671744657L199.79483309586843,136.47798186401963L200.99841642777125,139.95025769177062L202.20199975967407,135.4481829302195L203.40558309157691,139.04255544812716L204.60916642347973,139.00246547141577L205.81274975538255,141.32595610443758L207.01633308728537,138.5484909198628L208.21991641918817,141.11444691696036L209.423499751091,64.53488938301716L210.6270830829938,36.73663777265358L211.83066641489663,46.33211445224853L213.03424974679947,59.099389621829204L214.2378330787023,70.08517879427156L215.44141641060511,77.97742392634338L216.64499974250793,87.34855472641065L217.84858307441075,93.4860240551876L219.05216640631357,101.97374358272222L220.2557497382164,107.72522345592098L221.45933307011924,108.7717100893867L222.66291640202206,115.52020595976448L223.86649973392488,118.68469740965998L225.0700830658277,127.59997752625918L226.2736663977305,119.58474700996567L227.47724972963331,125.89279622733594L228.68083306153613,132.3296567122431L229.88441639343895,130.27598347174302L231.0879997253418,130.86977922286076L232.29158305724462,131.58443736682267L233.49516638914744,133.31176239788658L234.69874972105026,133.73932298695118L235.90233305295308,134.17873283021618L237.1059163848559,137.23213752198288L238.30949971675872,133.90506443007934L239.51308304866157,139.56170089778237L240.7166663805644,135.17945171933283L241.9202497124672,139.11350285765207L243.12383304437003,135.61975025666285L244.32741637627282,138.3693203219742L245.53099970817564,138.70969014888078L246.73458304007846,139.6647894093259L247.93816637198128,138.6251654689179L249.14174970388413,140.41178614287637L250.34533303578695,141.1626832559345L251.54891636768977,140.67503707369536L252.7524996995926,141.72335046718362L253.9560830314954,140.40250422708607L255.15966636339823,141.09687052322974L256.363249695301,141.88454969620162L257.56683302720387,97.67532787774054L258.7704163591067,92.36340596348428L259.9739996910095,87.50980332732115L261.17758302291236,107.11765294679526L262.38116635481515,116.37004434539597L263.584749686718,121.12445884952322L264.7883330186208,128.39066838467366" fill="none"></path></g></g></g></g></g></g><g transform="translate(41, 177)" clip-path="url(#clip_1)"><clipPath id="clip_1"><rect width="288" height="22"></rect></clipPath><g><g><line x1="0" y1="0" x2="0" y2="5" style="visibility: inherit;" fill="rgb(0, 0, 0)" stroke="rgb(204, 204, 204)" stroke-width="1px"></line><line x1="24.071666638056435" y1="0" x2="24.071666638056435" y2="5" style="visibility: inherit;" fill="rgb(0, 0, 0)" stroke="rgb(204, 204, 204)" stroke-width="1px"></line><line x1="48.14333327611287" y1="0" x2="48.14333327611287" y2="5" style="visibility: inherit;" fill="rgb(0, 0, 0)" stroke="rgb(204, 204, 204)" stroke-width="1px"></line><line x1="72.21499991416931" y1="0" x2="72.21499991416931" y2="5" style="visibility: inherit;" fill="rgb(0, 0, 0)" stroke="rgb(204, 204, 204)" stroke-width="1px"></line><line x1="96.28666655222574" y1="0" x2="96.28666655222574" y2="5" style="visibility: inherit;" fill="rgb(0, 0, 0)" stroke="rgb(204, 204, 204)" stroke-width="1px"></line><line x1="120.3583331902822" y1="0" x2="120.3583331902822" y2="5" style="visibility: inherit;" fill="rgb(0, 0, 0)" stroke="rgb(204, 204, 204)" stroke-width="1px"></line><line x1="144.42999982833862" y1="0" x2="144.42999982833862" y2="5" style="visibility: inherit;" fill="rgb(0, 0, 0)" stroke="rgb(204, 204, 204)" stroke-width="1px"></line><line x1="168.50166646639508" y1="0" x2="168.50166646639508" y2="5" style="visibility: inherit;" fill="rgb(0, 0, 0)" stroke="rgb(204, 204, 204)" stroke-width="1px"></line><line x1="192.57333310445148" y1="0" x2="192.57333310445148" y2="5" style="visibility: inherit;" fill="rgb(0, 0, 0)" stroke="rgb(204, 204, 204)" stroke-width="1px"></line><line x1="216.64499974250793" y1="0" x2="216.64499974250793" y2="5" style="visibility: inherit;" fill="rgb(0, 0, 0)" stroke="rgb(204, 204, 204)" stroke-width="1px"></line><line x1="240.7166663805644" y1="0" x2="240.7166663805644" y2="5" style="visibility: inherit;" fill="rgb(0, 0, 0)" stroke="rgb(204, 204, 204)" stroke-width="1px"></line><line x1="264.7883330186208" y1="0" x2="264.7883330186208" y2="5" style="visibility: inherit;" fill="rgb(0, 0, 0)" stroke="rgb(204, 204, 204)" stroke-width="1px"></line><line x1="288.85999965667725" y1="0" x2="288.85999965667725" y2="5" style="visibility: inherit;" fill="rgb(0, 0, 0)" stroke="rgb(204, 204, 204)" stroke-width="1px"></line></g><g transform="translate(0, 8)"><text style="text-anchor: middle; visibility: hidden; font-family: &quot;Helvetica Neue&quot;, sans-serif; font-size: 12px; font-weight: 200;" x="0" y="0" dx="0em" dy="0.95em" fill="rgb(50, 49, 63)" stroke="none" stroke-width="1px">-20</text><text style="text-anchor: middle; visibility: inherit; font-family: &quot;Helvetica Neue&quot;, sans-serif; font-size: 12px; font-weight: 200;" x="24.071666638056435" y="0" dx="0em" dy="0.95em" fill="rgb(50, 49, 63)" stroke="none" stroke-width="1px">0</text><text style="text-anchor: middle; visibility: hidden; font-family: &quot;Helvetica Neue&quot;, sans-serif; font-size: 12px; font-weight: 200;" x="48.14333327611287" y="0" dx="0em" dy="0.95em" fill="rgb(50, 49, 63)" stroke="none" stroke-width="1px">20</text><text style="text-anchor: middle; visibility: inherit; font-family: &quot;Helvetica Neue&quot;, sans-serif; font-size: 12px; font-weight: 200;" x="72.21499991416931" y="0" dx="0em" dy="0.95em" fill="rgb(50, 49, 63)" stroke="none" stroke-width="1px">40</text><text style="text-anchor: middle; visibility: hidden; font-family: &quot;Helvetica Neue&quot;, sans-serif; font-size: 12px; font-weight: 200;" x="96.28666655222574" y="0" dx="0em" dy="0.95em" fill="rgb(50, 49, 63)" stroke="none" stroke-width="1px">60</text><text style="text-anchor: middle; visibility: inherit; font-family: &quot;Helvetica Neue&quot;, sans-serif; font-size: 12px; font-weight: 200;" x="120.3583331902822" y="0" dx="0em" dy="0.95em" fill="rgb(50, 49, 63)" stroke="none" stroke-width="1px">80</text><text style="text-anchor: middle; visibility: hidden; font-family: &quot;Helvetica Neue&quot;, sans-serif; font-size: 12px; font-weight: 200;" x="144.42999982833862" y="0" dx="0em" dy="0.95em" fill="rgb(50, 49, 63)" stroke="none" stroke-width="1px">100</text><text style="text-anchor: middle; visibility: inherit; font-family: &quot;Helvetica Neue&quot;, sans-serif; font-size: 12px; font-weight: 200;" x="168.50166646639508" y="0" dx="0em" dy="0.95em" fill="rgb(50, 49, 63)" stroke="none" stroke-width="1px">120</text><text style="text-anchor: middle; visibility: hidden; font-family: &quot;Helvetica Neue&quot;, sans-serif; font-size: 12px; font-weight: 200;" x="192.57333310445148" y="0" dx="0em" dy="0.95em" fill="rgb(50, 49, 63)" stroke="none" stroke-width="1px">140</text><text style="text-anchor: middle; visibility: inherit; font-family: &quot;Helvetica Neue&quot;, sans-serif; font-size: 12px; font-weight: 200;" x="216.64499974250793" y="0" dx="0em" dy="0.95em" fill="rgb(50, 49, 63)" stroke="none" stroke-width="1px">160</text><text style="text-anchor: middle; visibility: hidden; font-family: &quot;Helvetica Neue&quot;, sans-serif; font-size: 12px; font-weight: 200;" x="240.7166663805644" y="0" dx="0em" dy="0.95em" fill="rgb(50, 49, 63)" stroke="none" stroke-width="1px">180</text><text style="text-anchor: middle; visibility: inherit; font-family: &quot;Helvetica Neue&quot;, sans-serif; font-size: 12px; font-weight: 200;" x="264.7883330186208" y="0" dx="0em" dy="0.95em" fill="rgb(50, 49, 63)" stroke="none" stroke-width="1px">200</text><text style="text-anchor: middle; visibility: hidden; font-family: &quot;Helvetica Neue&quot;, sans-serif; font-size: 12px; font-weight: 200;" x="288.85999965667725" y="0" dx="0em" dy="0.95em" fill="rgb(50, 49, 63)" stroke="none" stroke-width="1px">220</text></g><line x1="0" y1="0" x2="288.85999965667725" y2="0" fill="rgb(0, 0, 0)" stroke="rgb(204, 204, 204)" stroke-width="1px"></line></g></g></g></g></svg>