<svg viewBox="0 0 330 200" xmlns="http://www.w3.org/2000/svg"><g><g><g><g><g><line x1="82.66000080108643" y1="177.95999908447266" x2="77.66000080108643" y2="177.95999908447266" style="visibility: inherit;" fill="rgb(0, 0, 0)" stroke="rgb(204, 204, 204)" stroke-width="1px"></line><line x1="82.66000080108643" y1="163.1299991607666" x2="77.66000080108643" y2="163.1299991607666" style="visibility: inherit;" fill="rgb(0, 0, 0)" stroke="rgb(204, 204, 204)" stroke-width="1px"></line><line x1="82.66000080108643" y1="148.29999923706055" x2="77.66000080108643" y2="148.29999923706055" style="visibility: inherit;" fill="rgb(0, 0, 0)" stroke="rgb(204, 204, 204)" stroke-width="1px"></line><line x1="82.66000080108643" y1="133.4699993133545" x2="77.66000080108643" y2="133.4699993133545" style="visibility: inherit;" fill="rgb(0, 0, 0)" stroke="rgb(204, 204, 204)" stroke-width="1px"></line><line x1="82.66000080108643" y1="118.63999938964844" x2="77.66000080108643" y2="118.63999938964844" style="visibility: inherit;" fill="rgb(0, 0, 0)" stroke="rgb(204, 204, 204)" stroke-width="1px"></line><line x1="82.66000080108643" y1="103.80999946594238" x2="77.66000080108643" y2="103.80999946594238" style="visibility: inherit;" fill="rgb(0, 0, 0)" stroke="rgb(204, 204, 204)" stroke-width="1px"></line><line x1="82.66000080108643" y1="88.97999954223633" x2="77.66000080108643" y2="88.97999954223633" style="visibility: inherit;" fill="rgb(0, 0, 0)" stroke="rgb(204, 204, 204)" stroke-width="1px"></line><line x1="82.66000080108643" y1="74.14999961853027" x2="77.66000080108643" y2="74.14999961853027" style="visibility: inherit;" fill="rgb(0, 0, 0)" stroke="rgb(204, 204, 204)" stroke-width="1px"></line><line x1="82.66000080108643" y1="59.31999969482422" x2="77.66000080108643" y2="59.31999969482422" style="visibility: inherit;" fill="rgb(0, 0, 0)" stroke="rgb(204, 204, 204)" stroke-width="1px"></line><line x1="82.66000080108643" y1="44.489999771118164" x2="77.66000080108643" y2="44.489999771118164" style="visibility: inherit;" fill="rgb(0, 0, 0)" stroke="rgb(204, 204, 204)" stroke-width="1px"></line><line x1="82.66000080108643" y1="29.65999984741211" x2="77.66000080108643" y2="29.65999984741211" style="visibility: inherit;" fill="rgb(0, 0, 0)" stroke="rgb(204, 204, 204)" stroke-width="1px"></line><line x1="82.66000080108643" y1="14.829999923706055" x2="77.66000080108643" y2="14.829999923706055" style="visibility: inherit;" fill="rgb(0, 0, 0)" stroke="rgb(204, 204, 204)" stroke-width="1px"></line><line x1="82.66000080108643" y1="0" x2="77.66000080108643" y2="0" style="visibility: inherit;" fill="rgb(0, 0, 0)" stroke="rgb(204, 204, 204)" stroke-width="1px"></line></g><g transform="translate(72.66000080108643, 0)"><text style="text-anchor: end; visibility: hidden; font-family: &quot;Helvetica Neue&quot;, sans-serif; font-size: 12px; font-weight: 200;" x="0" y="177.95999908447266" dx="0em" dy="0.3em" fill="rgb(50, 49, 63)" stroke="none" stroke-width="1px">500</text><text style="text-anchor: end; visibility: inherit; font-family: &quot;Helvetica Neue&quot;, sans-serif; font-size: 12px; font-weight: 200;" x="0" y="163.1299991607666" dx="0em" dy="0.3em" fill="rgb(50, 49, 63)" stroke="none" stroke-width="1px">550</text><text style="text-anchor: end; visibility: hidden; font-family: &quot;Helvetica Neue&quot;, sans-serif; font-size: 12px; font-weight: 200;" x="0" y="148.29999923706055" dx="0em" dy="0.3em" fill="rgb(50, 49, 63)" stroke="none" stroke-width="1px">600</text><text style="text-anchor: end; visibility: inherit; font-family: &quot;Helvetica Neue&quot;, sans-serif; font-size: 12px; font-weight: 200;" x="0" y="133.4699993133545" dx="0em" dy="0.3em" fill="rgb(50, 49, 63)" stroke="none" stroke-width="1px">650</text><text style="text-anchor: end; visibility: hidden; font-family: &quot;Helvetica Neue&quot;, sans-serif; font-size: 12px; font-weight: 200;" x="0" y="118.63999938964844" dx="0em" dy="0.3em" fill="rgb(50, 49, 63)" stroke="none" stroke-width="1px">700</text><text style="text-anchor: end; visibility: inherit; font-family: &quot;Helvetica Neue&quot;, sans-serif; font-size: 12px; font-weight: 200;" x="0" y="103.80999946594238" dx="0em" dy="0.3em" fill="rgb(50, 49, 63)" stroke="none" stroke-width="1px">750</text><text style="text-anchor: end; visibility: hidden; font-family: &quot;Helvetica Neue&quot;, sans-serif; font-size: 12px; font-weight: 200;" x="0" y="88.97999954223633" dx="0em" dy="0.3em" fill="rgb(50, 49, 63)" stroke="none" stroke-width="1px">800</text><text style="text-anchor: end; visibility: inherit; font-family: &quot;Helvetica Neue&quot;, sans-serif; font-size: 12px; font-weight: 200;" x="0" y="74.14999961853027" dx="0em" dy="0.3em" fill="rgb(50, 49, 63)" stroke="none" stroke-width="1px">850</text><text style="text-anchor: end; visibility: hidden; font-family: &quot;Helvetica Neue&quot;, sans-serif; font-size: 12px; font-weight: 200;" x="0" y="59.31999969482422" dx="0em" dy="0.3em" fill="rgb(50, 49, 63)" stroke="none" stroke-width="1px">900</text><text style="text-anchor: end; visibility: inherit; font-family: &quot;Helvetica Neue&quot;, sans-serif; font-size: 12px; font-weight: 200;" x="0" y="44.489999771118164" dx="0em" dy="0.3em" fill="rgb(50, 49, 63)" stroke="none" stroke-width="1px">950</text><text style="text-anchor: end; visibility: hidden; font-family: &quot;Helvetica Neue&quot;, sans-serif; font-size: 12px; font-weight: 200;" x="0" y="29.65999984741211" dx="0em" dy="0.3em" fill="rgb(50, 49, 63)" stroke="none" stroke-width="1px">1e+3</text><text style="text-anchor: end; visibility: inherit; font-family: &quot;Helvetica Neue&quot;, sans-serif; font-size: 12px; font-weight: 200;" x="0" y="14.829999923706055" dx="0em" dy="0.3em" fill="rgb(50, 49, 63)" stroke="none" stroke-width="1px">1.05e+3</text><text style="text-anchor: end; visibility: hidden; font-family: &quot;Helvetica Neue&quot;, sans-serif; font-size: 12px; font-weight: 200;" x="0" y="0" dx="0em" dy="0.3em" fill="rgb(50, 49, 63)" stroke="none" stroke-width="1px">1.1e+3</text></g><line x1="82.66000080108643" y1="0" x2="82.66000080108643" y2="177.95999908447266" fill="rgb(0, 0, 0)" stroke="rgb(204, 204, 204)" stroke-width="1px"></line></g></g><g transform="translate(82, 0)" clip-path="url(#clip_0)"><clipPath id="clip_0"><rect width="247" height="177"></rect></clipPath><g><g><g><line x1="0" y1="0" x2="0" y2="177.95999908447266" fill="rgb(0, 0, 0)" stroke="rgb(60, 60, 60)" stroke-width="1px" opacity="0.25"></line><line x1="20.611666599909462" y1="0" x2="20.611666599909462" y2="177.95999908447266" fill="rgb(0, 0, 0)" stroke="rgb(60, 60, 60)" stroke-width="1px" opacity="0.25"></line><line x1="41.223333199818924" y1="0" x2="41.223333199818924" y2="177.95999908447266" fill="rgb(0, 0, 0)" stroke="rgb(60, 60, 60)" stroke-width="1px" opacity="0.25"></line><line x1="61.834999799728394" y1="0" x2="61.834999799728394" y2="177.95999908447266" fill="rgb(0, 0, 0)" stroke="rgb(60, 60, 60)" stroke-width="1px" opacity="0.25"></line><line x1="82.44666639963785" y1="0" x2="82.44666639963785" y2="177.95999908447266" fill="rgb(0, 0, 0)" stroke="rgb(60, 60, 60)" stroke-width="1px" opacity="0.25"></line><line x1="103.05833299954733" y1="0" x2="103.05833299954733" y2="177.95999908447266" fill="rgb(0, 0, 0)" stroke="rgb(60, 60, 60)" stroke-width="1px" opacity="0.25"></line><line x1="123.66999959945679" y1="0" x2="123.66999959945679" y2="177.95999908447266" fill="rgb(0, 0, 0)" stroke="rgb(60, 60, 60)" stroke-width="1px" opacity="0.25"></line><line x1="144.28166619936627" y1="0" x2="144.28166619936627" y2="177.95999908447266" fill="rgb(0, 0, 0)" stroke="rgb(60, 60, 60)" stroke-width="1px" opacity="0.25"></line><line x1="164.8933327992757" y1="0" x2="164.8933327992757" y2="177.95999908447266" fill="rgb(0, 0, 0)" stroke="rgb(60, 60, 60)" stroke-width="1px" opacity="0.25"></line><line x1="185.50499939918518" y1="0" x2="185.50499939918518" y2="177.95999908447266" fill="rgb(0, 0, 0)" stroke="rgb(60, 60, 60)" stroke-width="1px" opacity="0.25"></line><line x1="206.11666599909466" y1="0" x2="206.11666599909466" y2="177.95999908447266" fill="rgb(0, 0, 0)" stroke="rgb(60, 60, 60)" stroke-width="1px" opacity="0.25"></line><line x1="226.7283325990041" y1="0" x2="226.7283325990041" y2="177.95999908447266" fill="rgb(0, 0, 0)" stroke="rgb(60, 60, 60)" stroke-width="1px" opacity="0.25"></line><line x1="247.33999919891357" y1="0" x2="247.33999919891357" y2="177.95999908447266" fill="rgb(0, 0, 0)" stroke="rgb(60, 60, 60)" stroke-width="1px" opacity="0.25"></line></g><g><line x1="0" y1="177.95999908447266" x2="247.33999919891357" y2="177.95999908447266" fill="rgb(0, 0, 0)" stroke="rgb(60, 60, 60)" stroke-width="1px" opacity="0.25"></line><line x1="0" y1="163.1299991607666" x2="247.33999919891357" y2="163.1299991607666" fill="rgb(0, 0, 0)" stroke="rgb(60, 60, 60)" stroke-width="1px" opacity="0.25"></line><line x1="0" y1="148.29999923706055" x2="247.33999919891357" y2="148.29999923706055" fill="rgb(0, 0, 0)" stroke="rgb(60, 60, 60)" stroke-width="1px" opacity="0.25"></line><line x1="0" y1="133.4699993133545" x2="247.33999919891357" y2="133.4699993133545" fill="rgb(0, 0, 0)" stroke="rgb(60, 60, 60)" stroke-width="1px" opacity="0.25"></line><line x1="0" y1="118.63999938964844" x2="247.33999919891357" y2="118.63999938964844" fill="rgb(0, 0, 0)" stroke="rgb(60, 60, 60)" stroke-width="1px" opacity="0.25"></line><line x1="0" y1="103.80999946594238" x2="247.33999919891357" y2="103.80999946594238" fill="rgb(0, 0, 0)" stroke="rgb(60, 60, 60)" stroke-width="1px" opacity="0.25"></line><line x1="0" y1="88.97999954223633" x2="247.33999919891357" y2="88.97999954223633" fill="rgb(0, 0, 0)" stroke="rgb(60, 60, 60)" stroke-width="1px" opacity="0.25"></line><line x1="0" y1="74.14999961853027" x2="247.33999919891357" y2="74.14999961853027" fill="rgb(0, 0, 0)" stroke="rgb(60, 60, 60)" stroke-width="1px" opacity="0.25"></line><line x1="0" y1="59.31999969482422" x2="247.33999919891357" y2="59.31999969482422" fill="rgb(0, 0, 0)" stroke="rgb(60, 60, 60)" stroke-width="1px" opacity="0.25"></line><line x1="0" y1="44.489999771118164" x2="247.33999919891357" y2="44.489999771118164" fill="rgb(0, 0, 0)" stroke="rgb(60, 60, 60)" stroke-width="1px" opacity="0.25"></line><line x1="0" y1="29.65999984741211" x2="247.33999919891357" y2="29.65999984741211" fill="rgb(0, 0, 0)" stroke="rgb(60, 60, 60)" stroke-width="1px" opacity="0.25"></line><line x1="0" y1="14.829999923706055" x2="247.33999919891357" y2="14.829999923706055" fill="rgb(0, 0, 0)" stroke="rgb(60, 60, 60)" stroke-width="1px" opacity="0.25"></line><line x1="0" y1="0" x2="247.33999919891357" y2="0" fill="rgb(0, 0, 0)" stroke="rgb(60, 60, 60)" stroke-width="1px" opacity="0.25"></line></g></g></g><g><g><line x1="0" y1="326.2599983215332" x2="247.33999919891357" y2="326.2599983215332" fill="rgb(0, 0, 0)" stroke="rgb(153, 153, 153)" stroke-width="1.5px"></line></g></g><g><g><line x1="20.611666599909462" y1="0" x2="20.611666599909462" y2="177.95999908447266" fill="rgb(0, 0, 0)" stroke="rgb(153, 153, 153)" stroke-width="1.5px"></line></g></g><g><g><g><g><g><path style="fill: none;" stroke="rgb(51, 187, 238)" stroke-width="2px" d="M22.672833259900408,111.26106065807863L24.73399991989136,111.43996382488287L26.795166579882306,111.65460938702095L28.85633323987325,111.85611881097473L30.917499899864197,112.0188337179722L32.97866655985514,112.15433211557635L35.03983321984609,112.28926388093099L37.10099987983703,112.45384532352197L39.16216653982798,112.69422349184946L41.223333199818924,113.03503514655506L43.28449985980987,113.50036904131508L45.345666519800815,114.08492097429635L47.406833179791775,114.77343624832551L49.46799983978272,115.53721170017266L51.529166499773666,116.3780804231216L53.59033315976461,117.24475029511179L55.65149981975556,118.14220912613763L57.7126664797465,119.0479276813945L59.77383313973745,119.95666301803436L61.834999799728394,120.86602086544987L63.896166459719346,121.76120590259669L65.95733311971028,122.64094124264824L68.01849977970124,123.50214853609262L70.07966643969218,124.3458976756271L72.14083309968314,125.18283716017812L74.20199975967407,125.99873256669828L76.26316641966503,126.75435472795436L78.32433307965596,127.52453070118244L80.38549973964692,128.26684198266412L82.44666639963785,129.03634524805582L84.50783305962881,129.77871647013862L86.56899971961974,130.51755302939648L88.6301663796107,131.21962685240632L90.69133303960163,131.94522646882444L92.75249969959259,132.65267472962435L94.81366635958355,133.3435043828229L96.87483301957448,134.01846852787557L98.93599967956544,134.68383371596263L100.99716633955637,135.3246847943024L103.05833299954733,135.95021914552936L105.11949965953826,136.60660011583803L107.18066631952922,137.2098807230767L109.24183297952015,137.78004114188724L111.30299963951111,138.3712060832363L113.36416629950205,138.92128740051092L115.425332959493,139.51609658500138L117.48649961948394,140.0621080419716L119.5476662794749,140.63165825474516L121.60883293946583,141.1396755495166L123.66999959945679,141.68931850812535L125.73116625944773,142.22965697263527L127.79233291943869,142.7150349235577L129.85349957942964,143.21273034050935L131.91466623942057,143.69180580752507L133.9758328994115,144.10520471013314L136.0369995594025,144.62725871337415L138.09816621939342,145.09733574341803L140.15933287938435,145.57253402099747L142.22049953937528,145.98604689801738L144.28166619936627,146.41787862719042L146.3428328593572,146.6634800475762L148.40399951934813,147.16313305131555L150.46516617933906,147.59915375422554L152.52633283933005,148.00148462739602L154.58749949932098,148.49905546931632L156.64866615931192,148.8883158646268L158.7098328193029,149.3006793225729L160.77099947929383,149.68724450599973L162.83216613928477,150.0118493919463L164.8933327992757,150.43232086727488L166.95449945926669,150.80102070011534L169.01566611925762,151.14083715194386L171.07683277924855,151.3483765933347L173.13799943923948,151.5657253406995L175.19916609923047,151.9594612235058L177.2603327592214,152.09384063945583L179.32149941921233,137.65669489691666L181.38266607920326,130.62969010899593L183.44383273919425,129.824235153267L185.50499939918518,131.52687375549812L187.5661660591761,134.35796310869958L189.6273327191671,137.57153597063933L191.68849937915803,140.5669762448124L193.74966603914896,143.1610632567794L195.8108326991399,145.2554070920518L197.87199935913088,146.84712215125685L199.9331660191218,148.0470416982153L201.99433267911274,148.97545340578674L204.05549933910368,149.70710774876727L206.11666599909466,150.31917253628237L208.1778326590856,150.81030852729464L210.23899931907653,151.25310909086656L212.30016597906746,151.5666972803258L214.36133263905845,151.98155078365534L216.42249929904938,152.20033944830806L218.4836659590403,152.28767297935696L220.5448326190313,28.911135085513934L222.60599927902223,72.48548971295553L224.66716593901316,101.45996770923702L226.7283325990041,120.11407498387373" fill="none"></path></g></g></g></g><g opacity="0.2"><g><g><g><path style="fill: none;" stroke="rgb(51, 187, 238)" stroke-width="2px" d="M22.672833259900408,111.26106065807863L24.73399991989136,111.54730572496541L26.795166579882306,111.8606691266736L28.85633323987325,112.09309389354429L30.917499899864197,112.23127430054825L32.97866655985514,112.34177517888602L35.03983321984609,112.48221846429631L37.10099987983703,112.69380664680153L39.16216653982798,113.04873459907715L41.223333199818924,113.54110073423945L43.28449985980987,114.19414933927823L45.345666519800815,114.95856776796282L47.406833179791775,115.80396103753941L49.46799983978272,116.68137856232235L51.529166499773666,117.63839509792626L53.59033315976461,118.54414386035641L55.65149981975556,119.48801759817637L57.7126664797465,120.40627555243671L59.77383313973745,121.31962758631212L61.834999799728394,122.22997451766395L63.896166459719346,123.10393436424201L65.95733311971028,123.96051530465948L68.01849977970124,124.79394247322344L70.07966643969218,125.61151138991582L72.14083309968314,126.43824043839705L74.20199975967407,127.2225721970573L76.26316641966503,127.8877860364085L78.32433307965596,128.67979347862303L80.38549973964692,129.38030822111293L82.44666639963785,130.19059972085057L84.50783305962881,130.89227305708454L86.56899971961974,131.62580772127956L88.6301663796107,132.27273750310763L90.69133303960163,133.03362584147834L92.75249969959259,133.7138470904203L94.81366635958355,134.37974884480704L96.87483301957448,135.03091473501175L98.93599967956544,135.68188149191673L100.99716633955637,136.2859614082426L103.05833299954733,136.8885206702794L105.11949965953826,137.59117156998488L107.18066631952922,138.114801633209L109.24183297952015,138.63528176969152L111.30299963951111,139.25795349500373L113.36416629950205,139.74640937627993L115.425332959493,140.40831036164425L117.48649961948394,140.8811252273759L119.5476662794749,141.4859835738735L121.60883293946583,141.90170149165672L123.66999959945679,142.51378294602733L125.73116625944773,143.04016466939356L127.79233291943869,143.44310184993782L129.85349957942964,143.95927346593467L131.91466623942057,144.4104190080473L133.9758328994115,144.72530306404457L136.0369995594025,145.4103397182352L138.09816621939342,145.80245128848358L140.15933287938435,146.28533143736655L142.22049953937528,146.60631621354725L144.28166619936627,147.06562622094992L146.3428328593572,147.03188217815477L148.40399951934813,147.91261255692459L150.46516617933906,148.25318480859045L152.52633283933005,148.6049809371517L154.58749949932098,149.2454117321968L156.64866615931192,149.47220645759256L158.7098328193029,149.91922450949204L160.77099947929383,150.26709228113992L162.83216613928477,150.49875672086608L164.8933327992757,151.06302808026783L166.95449945926669,151.35407044937602L169.01566611925762,151.65056182968664L171.07683277924855,151.65968575542095L173.13799943923948,151.8917484617466L175.19916609923047,152.55006504771532L177.2603327592214,152.2954097633809L179.32149941921233,116.00097628310789L181.38266607920326,120.08918292711489L183.44383273919425,128.6160527196736L185.50499939918518,134.08083165884483L187.5661660591761,138.6045971385017L189.6273327191671,142.39189526354895L191.68849937915803,145.060136656072L193.74966603914896,147.05219377472997L195.8108326991399,148.39692284496036L197.87199935913088,149.23469474006444L199.9331660191218,149.8469210186531L201.99433267911274,150.36807096714386L204.05549933910368,150.80458926323803L206.11666599909466,151.23726971755502L208.1778326590856,151.5470125138131L210.23899931907653,151.91730993622448L212.30016597906746,152.03707956451456L214.36133263905845,152.60383103864967L216.42249929904938,152.52852244528708L218.4836659590403,152.41867327593033L220.5448326190313,-156.1536717552505L222.60599927902223,137.84702165411784L224.66716593901316,144.92168470365925L226.7283325990041,148.0952358958288" fill="none"></path></g></g></g></g></g></g><g transform="translate(82, 177)" clip-path="url(#clip_1)"><clipPath id="clip_1"><rect width="247" height="22"></rect></clipPath><g><g><line x1="0" y1="0" x2="0" y2="5" style="visibility: inherit;" fill="rgb(0, 0, 0)" stroke="rgb(204, 204, 204)" stroke-width="1px"></line><line x1="20.611666599909462" y1="0" x2="20.611666599909462" y2="5" style="visibility: inherit;" fill="rgb(0, 0, 0)" stroke="rgb(204, 204, 204)" stroke-width="1px"></line><line x1="41.223333199818924" y1="0" x2="41.223333199818924" y2="5" style="visibility: inherit;" fill="rgb(0, 0, 0)" stroke="rgb(204, 204, 204)" stroke-width="1px"></line><line x1="61.834999799728394" y1="0" x2="61.834999799728394" y2="5" style="visibility: inherit;" fill="rgb(0, 0, 0)" stroke="rgb(204, 204, 204)" stroke-width="1px"></line><line x1="82.44666639963785" y1="0" x2="82.44666639963785" y2="5" style="visibility: inherit;" fill="rgb(0, 0, 0)" stroke="rgb(204, 204, 204)" stroke-width="1px"></line><line x1="103.05833299954733" y1="0" x2="103.05833299954733" y2="5" style="visibility: inherit;" fill="rgb(0, 0, 0)" stroke="rgb(204, 204, 204)" stroke-width="1px"></line><line x1="123.66999959945679" y1="0" x2="123.66999959945679" y2="5" style="visibility: inherit;" fill="rgb(0, 0, 0)" stroke="rgb(204, 204, 204)" stroke-width="1px"></line><line x1="144.28166619936627" y1="0" x2="144.28166619936627" y2="5" style="visibility: inherit;" fill="rgb(0, 0, 0)" stroke="rgb(204, 204, 204)" stroke-width="1px"></line><line x1="164.8933327992757" y1="0" x2="164.8933327992757" y2="5" style="visibility: inherit;" fill="rgb(0, 0, 0)" stroke="rgb(204, 204, 204)" stroke-width="1px"></line><line x1="185.50499939918518" y1="0" x2="185.50499939918518" y2="5" style="visibility: inherit;" fill="rgb(0, 0, 0)" stroke="rgb(204, 204, 204)" stroke-width="1px"></line><line x1="206.11666599909466" y1="0" x2="206.11666599909466" y2="5" style="visibility: inherit;" fill="rgb(0, 0, 0)" stroke="rgb(204, 204, 204)" stroke-width="1px"></line><line x1="226.7283325990041" y1="0" x2="226.7283325990041" y2="5" style="visibility: inherit;" fill="rgb(0, 0, 0)" stroke="rgb(204, 204, 204)" stroke-width="1px"></line><line x1="247.33999919891357" y1="0" x2="247.33999919891357" y2="5" style="visibility: inherit;" fill="rgb(0, 0, 0)" stroke="rgb(204, 204, 204)" stroke-width="1px"></line></g><g transform="translate(0, 8)"><text style="text-anchor: middle; visibility: hidden; font-family: &quot;Helvetica Neue&quot;, sans-serif; font-size: 12px; font-weight: 200;" x="0" y="0" dx="0em" dy="0.95em" fill="rgb(50, 49, 63)" stroke="none" stroke-width="1px">-10</text><text style="text-anchor: middle; visibility: inherit; font-family: &quot;Helvetica Neue&quot;, sans-serif; font-size: 12px; font-weight: 200;" x="20.611666599909462" y="0" dx="0em" dy="0.95em" fill="rgb(50, 49, 63)" stroke="none" stroke-width="1px">0</text><text style="text-anchor: middle; visibility: hidden; font-family: &quot;Helvetica Neue&quot;, sans-serif; font-size: 12px; font-weight: 200;" x="41.223333199818924" y="0" dx="0em" dy="0.95em" fill="rgb(50, 49, 63)" stroke="none" stroke-width="1px">10</text><text style="text-anchor: middle; visibility: inherit; font-family: &quot;Helvetica Neue&quot;, sans-serif; font-size: 12px; font-weight: 200;" x="61.834999799728394" y="0" dx="0em" dy="0.95em" fill="rgb(50, 49, 63)" stroke="none" stroke-width="1px">20</text><text style="text-anchor: middle; visibility: hidden; font-family: &quot;Helvetica Neue&quot;, sans-serif; font-size: 12px; font-weight: 200;" x="82.44666639963785" y="0" dx="0em" dy="0.95em" fill="rgb(50, 49, 63)" stroke="none" stroke-width="1px">30</text><text style="text-anchor: middle; visibility: inherit; font-family: &quot;Helvetica Neue&quot;, sans-serif; font-size: 12px; font-weight: 200;" x="103.05833299954733" y="0" dx="0em" dy="0.95em" fill="rgb(50, 49, 63)" stroke="none" stroke-width="1px">40</text><text style="text-anchor: middle; visibility: hidden; font-family: &quot;Helvetica Neue&quot;, sans-serif; font-size: 12px; font-weight: 200;" x="123.66999959945679" y="0" dx="0em" dy="0.95em" fill="rgb(50, 49, 63)" stroke="none" stroke-width="1px">50</text><text style="text-anchor: middle; visibility: inherit; font-family: &quot;Helvetica Neue&quot;, sans-serif; font-size: 12px; font-weight: 200;" x="144.28166619936627" y="0" dx="0em" dy="0.95em" fill="rgb(50, 49, 63)" stroke="none" stroke-width="1px">60</text><text style="text-anchor: middle; visibility: hidden; font-family: &quot;Helvetica Neue&quot;, sans-serif; font-size: 12px; font-weight: 200;" x="164.8933327992757" y="0" dx="0em" dy="0.95em" fill="rgb(50, 49, 63)" stroke="none" stroke-width="1px">70</text><text style="text-anchor: middle; visibility: inherit; font-family: &quot;Helvetica Neue&quot;, sans-serif; font-size: 12px; font-weight: 200;" x="185.50499939918518" y="0" dx="0em" dy="0.95em" fill="rgb(50, 49, 63)" stroke="none" stroke-width="1px">80</text><text style="text-anchor: middle; visibility: hidden; font-family: &quot;Helvetica Neue&quot;, sans-serif; font-size: 12px; font-weight: 200;" x="206.11666599909466" y="0" dx="0em" dy="0.95em" fill="rgb(50, 49, 63)" stroke="none" stroke-width="1px">90</text><text style="text-anchor: middle; visibility: inherit; font-family: &quot;Helvetica Neue&quot;, sans-serif; font-size: 12px; font-weight: 200;" x="226.7283325990041" y="0" dx="0em" dy="0.95em" fill="rgb(50, 49, 63)" stroke="none" stroke-width="1px">100</text><text style="text-anchor: middle; visibility: hidden; font-family: &quot;Helvetica Neue&quot;, sans-serif; font-size: 12px; font-weight: 200;" x="247.33999919891357" y="0" dx="0em" dy="0.95em" fill="rgb(50, 49, 63)" stroke="none" stroke-width="1px">110</text></g><line x1="0" y1="0" x2="247.33999919891357" y2="0" fill="rgb(0, 0, 0)" stroke="rgb(204, 204, 204)" stroke-width="1px"></line></g></g></g></g></svg>